<svg xmlns="http://www.w3.org/2000/svg" viewBox="0 0 780 380" font-family="'Computer Modern', 'Latin Modern Math', 'STIX Two Math', serif">
  <defs>
    <style>
      .var-node { fill: white; stroke: #333; stroke-width: 2; }
      .dot-pr { fill: #c0392b; }
      .dot-cp { fill: #2471a3; }
      .dot-imu { fill: #333; }
      .edge-cp { stroke: #2471a3; stroke-width: 1.5; fill: none; }
      .edge-pr { stroke: #c0392b; stroke-width: 1.5; fill: none; }
      .edge-imu { stroke: #333; stroke-width: 1.5; fill: none; }
      .vartext { font-size: 20px; font-weight: bold; fill: #333; text-anchor: middle; dominant-baseline: central; }
      .subtext { font-size: 13px; font-weight: bold; fill: #333; text-anchor: middle; dominant-baseline: central; }
      .ann { font-size: 11px; fill: #888; text-anchor: middle; dominant-baseline: central; }
      .legend-label { font-size: 11px; fill: #333; text-anchor: start; dominant-baseline: central; }
    </style>
  </defs>

  <circle cx="120" cy="65" r="24" class="var-node"/>
  <text x="120" y="61" class="vartext" font-style="italic">x</text>
  <text x="133" y="76" class="subtext">0</text>

  <circle cx="370" cy="65" r="24" class="var-node"/>
  <text x="370" y="61" class="vartext" font-style="italic">x</text>
  <text x="383" y="76" class="subtext">1</text>

  <circle cx="620" cy="65" r="24" class="var-node"/>
  <text x="620" y="61" class="vartext" font-style="italic">x</text>
  <text x="633" y="76" class="subtext">2</text>

  <line x1="144" y1="65" x2="232" y2="65" class="edge-imu"/>
  <circle cx="238" cy="65" r="5" class="dot-imu"/>
  <line x1="244" y1="65" x2="346" y2="65" class="edge-imu"/>
  <text x="238" y="48" class="ann">IMU</text>

  <line x1="394" y1="65" x2="482" y2="65" class="edge-imu"/>
  <circle cx="488" cy="65" r="5" class="dot-imu"/>
  <line x1="494" y1="65" x2="596" y2="65" class="edge-imu"/>
  <text x="488" y="48" class="ann">IMU</text>

  <line x1="107" y1="87" x2="68" y2="140" class="edge-pr"/>
  <circle cx="68" cy="145" r="4.5" class="dot-pr"/>
  <line x1="112" y1="87" x2="88" y2="140" class="edge-cp"/>
  <circle cx="88" cy="145" r="4.5" class="dot-cp"/>
  <line x1="88" y1="150" x2="290" y2="255" class="edge-cp"/>
  <text x="78" y="165" class="ann">sat 1</text>

  <line x1="130" y1="88" x2="148" y2="140" class="edge-pr"/>
  <circle cx="148" cy="145" r="4.5" class="dot-pr"/>
  <line x1="135" y1="88" x2="168" y2="140" class="edge-cp"/>
  <circle cx="168" cy="145" r="4.5" class="dot-cp"/>
  <line x1="168" y1="150" x2="430" y2="255" class="edge-cp"/>
  <text x="158" y="165" class="ann">sat 2</text>

  <line x1="357" y1="87" x2="318" y2="140" class="edge-pr"/>
  <circle cx="318" cy="145" r="4.5" class="dot-pr"/>
  <line x1="362" y1="87" x2="338" y2="140" class="edge-cp"/>
  <circle cx="338" cy="145" r="4.5" class="dot-cp"/>
  <line x1="338" y1="150" x2="310" y2="255" class="edge-cp"/>
  <text x="312" y="165" class="ann">sat 1</text>

  <line x1="380" y1="88" x2="398" y2="140" class="edge-pr"/>
  <circle cx="398" cy="145" r="4.5" class="dot-pr"/>
  <line x1="385" y1="88" x2="418" y2="140" class="edge-cp"/>
  <circle cx="418" cy="145" r="4.5" class="dot-cp"/>
  <line x1="418" y1="150" x2="445" y2="255" class="edge-cp"/>
  <text x="408" y="165" class="ann">sat 2</text>

  <line x1="607" y1="87" x2="568" y2="140" class="edge-pr"/>
  <circle cx="568" cy="145" r="4.5" class="dot-pr"/>
  <line x1="612" y1="87" x2="588" y2="140" class="edge-cp"/>
  <circle cx="588" cy="145" r="4.5" class="dot-cp"/>
  <line x1="588" y1="150" x2="320" y2="255" class="edge-cp"/>
  <text x="578" y="165" class="ann">sat 1</text>

  <line x1="630" y1="88" x2="648" y2="140" class="edge-pr"/>
  <circle cx="648" cy="145" r="4.5" class="dot-pr"/>
  <line x1="635" y1="88" x2="668" y2="140" class="edge-cp"/>
  <circle cx="668" cy="145" r="4.5" class="dot-cp"/>
  <line x1="668" y1="150" x2="455" y2="255" class="edge-cp"/>
  <text x="658" y="165" class="ann">sat 2</text>

  <circle cx="305" cy="280" r="26" class="var-node"/>
  <text x="300" y="276" class="vartext" font-style="italic">N</text>
  <text x="316" y="291" class="subtext">1</text>
  <text x="305" y="318" class="ann">ambiguity</text>

  <circle cx="445" cy="280" r="26" class="var-node"/>
  <text x="440" y="276" class="vartext" font-style="italic">N</text>
  <text x="456" y="291" class="subtext">2</text>
  <text x="445" y="318" class="ann">ambiguity</text>

  <circle cx="20" cy="365" r="4.5" class="dot-pr"/>
  <text x="30" y="365" class="legend-label">DD pseudorange</text>
  <circle cx="130" cy="365" r="4.5" class="dot-cp"/>
  <text x="140" y="365" class="legend-label">DD carrier phase</text>
  <circle cx="250" cy="365" r="4.5" class="dot-imu"/>
  <text x="260" y="365" class="legend-label">IMU</text>

</svg>
